<svg id="visual" viewBox="0 0 900 600" width="900" height="600" xmlns="http://www.w3.org/2000/svg" xmlns:xlink="http://www.w3.org/1999/xlink" version="1.1"><rect width="900" height="600" fill="#5816c7"></rect><g><g transform="translate(373 571)"><path d="M70.6 -41.1C75.8 -31.6 53.7 -6.7 37.4 9.8C21.1 26.2 10.5 34.1 0.7 33.7C-9.2 33.3 -18.4 24.6 -27.6 12.3C-36.8 0 -46.1 -16 -41.5 -25.1C-36.9 -34.2 -18.4 -36.6 7.1 -40.7C32.7 -44.8 65.3 -50.7 70.6 -41.1Z" fill="#8a71cc"></path></g><g transform="translate(138 18)"><path d="M43.8 -17.5C53.4 -8.6 55.7 12.4 47.1 21.5C38.6 30.6 19.3 27.8 2.6 26.3C-14 24.7 -28 24.5 -32.6 17.7C-37.1 10.9 -32.2 -2.5 -25.3 -9.8C-18.3 -17.2 -9.1 -18.6 4 -20.9C17.1 -23.2 34.2 -26.4 43.8 -17.5Z" fill="#8a71cc"></path></g><g transform="translate(786 578)"><path d="M31.4 -8.6C45.5 6.4 65.1 27.6 60.8 41.9C56.5 56.1 28.3 63.3 5.5 60.2C-17.2 57 -34.4 43.4 -41.2 27.7C-48 12 -44.3 -5.7 -35.7 -17.5C-27.1 -29.2 -13.6 -34.9 -2.5 -33.5C8.6 -32.1 17.2 -23.5 31.4 -8.6Z" fill="#8a71cc"></path></g><g transform="translate(598 84)"><path d="M56.2 -27C65.2 -16.9 59.5 7.1 47.7 18.4C35.9 29.7 18 28.3 4.8 25.6C-8.4 22.8 -16.8 18.7 -26.8 8.4C-36.9 -2 -48.7 -18.4 -44.5 -25.8C-40.3 -33.1 -20.2 -31.4 1.7 -32.4C23.6 -33.4 47.2 -37.1 56.2 -27Z" fill="#8a71cc"></path></g><g transform="translate(14 402)"><path d="M64.1 -42C68.3 -29.8 46.7 -7.7 31.7 19.3C16.7 46.3 8.3 78.1 -0.4 78.3C-9.2 78.6 -18.4 47.3 -22.6 26.5C-26.8 5.8 -25.9 -4.3 -21.3 -16.8C-16.7 -29.3 -8.3 -44.2 10.8 -50.4C30 -56.7 59.9 -54.3 64.1 -42Z" fill="#8a71cc"></path></g><g transform="translate(866 142)"><path d="M37.7 -18.2C44.6 -10 42.7 6.8 35 16C27.3 25.2 13.6 26.8 2.7 25.2C-8.3 23.7 -16.6 19 -20.7 11.9C-24.9 4.7 -25 -4.8 -20.8 -11.5C-16.7 -18.2 -8.3 -21.9 3.6 -23.9C15.5 -26 30.9 -26.4 37.7 -18.2Z" fill="#8a71cc"></path></g><g transform="translate(360 194)"><path d="M32.2 -13C46.9 6.8 67.4 28.8 63 37.8C58.6 46.9 29.3 42.9 7.7 38.5C-13.9 34 -27.8 29.1 -41.1 14.8C-54.5 0.6 -67.2 -22.8 -60.3 -38.1C-53.3 -53.4 -26.7 -60.6 -8.9 -55.4C8.8 -50.2 17.5 -32.7 32.2 -13Z" fill="#8a71cc"></path></g></g></svg>