<svg id="visual" viewBox="0 0 900 600" width="900" height="600" xmlns="http://www.w3.org/2000/svg" xmlns:xlink="http://www.w3.org/1999/xlink" version="1.1"><rect width="900" height="600" fill="#5816c7"></rect><g><g transform="translate(841 356)"><path d="M38.9 -30.1C48.2 -6.3 52.1 13 44.7 29.8C37.3 46.7 18.6 61.1 -1.9 62.2C-22.4 63.3 -44.8 51.1 -60.1 29.6C-75.5 8.2 -83.7 -22.4 -72.5 -47.3C-61.3 -72.1 -30.6 -91.2 -7.9 -86.6C14.8 -82.1 29.6 -53.9 38.9 -30.1Z" fill="#8a71cc"></path></g><g transform="translate(448 582)"><path d="M23.5 -15.2C30.2 -2 35.1 10.5 30.9 31.5C26.7 52.5 13.3 81.9 -9.1 87.2C-31.5 92.4 -63.1 73.5 -69.8 51.1C-76.5 28.6 -58.5 2.7 -42.7 -15.8C-26.9 -34.2 -13.5 -45.1 -2.5 -43.6C8.4 -42.2 16.8 -28.4 23.5 -15.2Z" fill="#8a71cc"></path></g><g transform="translate(584 99)"><path d="M30.7 -15.4C37.7 -5.7 39.7 9.2 33.8 27.5C27.8 45.7 13.9 67.3 -7.5 71.6C-29 76 -57.9 63.1 -65.2 44C-72.6 25 -58.2 -0.1 -43.7 -14.3C-29.2 -28.4 -14.6 -31.5 -1.4 -30.7C11.9 -29.9 23.7 -25.2 30.7 -15.4Z" fill="#8a71cc"></path></g><g transform="translate(345 302)"><path d="M39.4 -19.5C52.2 -0.5 64.6 21.9 57.9 36.8C51.3 51.7 25.6 58.9 8.6 54C-8.5 49.1 -17 31.9 -25.5 16C-33.9 0.1 -42.1 -14.5 -37.9 -28.5C-33.6 -42.5 -16.8 -55.9 -1.8 -54.9C13.3 -53.9 26.6 -38.5 39.4 -19.5Z" fill="#8a71cc"></path></g><g transform="translate(831 1)"><path d="M40.1 -20.1C51.5 -3.3 60.1 18.2 52.9 31C45.8 43.8 22.9 48 4 45.7C-15 43.5 -29.9 34.7 -35.9 22.6C-41.9 10.4 -38.8 -5.1 -31.3 -19.6C-23.8 -34.1 -11.9 -47.5 1.2 -48.2C14.3 -48.9 28.6 -36.8 40.1 -20.1Z" fill="#8a71cc"></path></g><g transform="translate(85 249)"><path d="M37.6 -17C46.1 -7.1 48.4 11.1 41.1 29.7C33.8 48.3 16.9 67.4 -3.3 69.3C-23.6 71.2 -47.2 56 -57.2 35.8C-67.3 15.6 -63.9 -9.7 -52.1 -21.5C-40.4 -33.4 -20.2 -31.9 -2.8 -30.3C14.6 -28.6 29.2 -26.9 37.6 -17Z" fill="#8a71cc"></path></g><g transform="translate(143 538)"><path d="M21.2 -5.6C30.1 3.1 41.7 16.9 38.6 29.7C35.5 42.4 17.7 54.1 3.2 52.3C-11.3 50.4 -22.5 34.9 -32.3 18.3C-42.2 1.6 -50.6 -16.2 -45 -23.1C-39.3 -30 -19.7 -25.9 -6.8 -22C6.2 -18.1 12.3 -14.4 21.2 -5.6Z" fill="#8a71cc"></path></g></g></svg>